<?xml version="1.0" standalone="no"?>
<!DOCTYPE svg PUBLIC "-//W3C//DTD SVG 20010904//EN"
 "http://www.w3.org/TR/2001/REC-SVG-20010904/DTD/svg10.dtd">
<svg version="1.0" xmlns="http://www.w3.org/2000/svg"
 width="512px" height="512px" viewBox="0 0 512.000000 512.000000"
 preserveAspectRatio="xMidYMid meet">

<g transform="translate(0.000000,512.000000) scale(0.100000,-0.100000)"
fill="#000000" stroke="none">
<path d="M688 4624 c-152 -36 -285 -146 -356 -294 -22 -47 -45 -112 -51 -144
-15 -84 -15 -2575 0 -2648 19 -95 92 -229 161 -300 122 -124 243 -175 488
-208 549 -74 1014 -228 1360 -452 104 -67 155 -87 234 -94 83 -7 141 22 173
86 l23 44 0 1588 0 1587 30 16 c17 9 69 41 115 71 163 106 426 221 686 298
208 62 644 146 762 146 78 0 156 -54 193 -135 l24 -50 0 -998 c0 -703 3 -1011
11 -1043 35 -137 227 -159 292 -33 16 32 17 98 15 1084 l-3 1050 -26 66 c-38
98 -75 157 -144 225 -69 70 -154 117 -252 140 -82 19 -176 14 -392 -21 -563
-92 -1015 -250 -1362 -476 -101 -66 -115 -65 -244 16 -376 236 -890 404 -1470
480 -139 18 -191 18 -267 -1z m297 -325 c504 -74 975 -231 1270 -423 46 -30
98 -62 115 -71 l30 -16 0 -1449 c0 -798 -2 -1450 -5 -1450 -2 0 -28 14 -56 31
-332 195 -813 345 -1357 423 -192 27 -241 45 -305 109 -21 21 -50 62 -63 90
l-24 52 0 1270 0 1270 24 50 c37 81 112 134 191 135 22 0 103 -9 180 -21z"/>
<path d="M1025 3513 c-31 -8 -83 -51 -100 -83 -22 -44 -19 -111 8 -150 39 -58
63 -68 235 -100 212 -40 402 -88 583 -150 81 -28 158 -50 173 -50 72 0 140 61
151 134 9 58 -21 128 -66 155 -90 55 -504 172 -792 226 -139 25 -155 27 -192
18z"/>
<path d="M980 2638 c-88 -60 -93 -199 -10 -258 32 -23 456 -114 532 -115 32 0
55 7 75 21 118 87 89 249 -52 289 -100 29 -401 85 -456 85 -42 0 -64 -6 -89
-22z"/>
<path d="M3770 2058 c-33 -17 -51 -35 -67 -68 -22 -42 -23 -55 -23 -297 l0
-253 -253 0 c-242 0 -255 -1 -297 -22 -117 -60 -115 -225 4 -279 36 -17 69
-19 293 -19 l252 0 3 -268 3 -269 27 -35 c73 -95 220 -81 268 25 18 38 20 67
20 295 l0 252 253 0 c227 0 256 2 294 20 106 48 120 195 25 268 l-35 27 -269
3 -268 3 0 252 c0 224 -2 257 -19 293 -38 83 -129 114 -211 72z"/>
</g>
</svg>
